<svg width="110" height="100" viewBox="0 0 110 100" fill="none" xmlns="http://www.w3.org/2000/svg">
<path d="M101.639 0H8.13108C3.64041 0 0 3.64041 0 8.13108V91.4747C0 95.9654 3.64041 99.6058 8.13108 99.6058H101.639C106.129 99.6058 109.77 95.9654 109.77 91.4747V8.13108C109.77 3.64041 106.129 0 101.639 0Z" fill="#F8FAFC"/>
<path d="M55.564 26.8035C57.1603 25.7657 58.7302 24.6844 60.358 23.6986C64.2933 21.3158 68.2561 18.9784 72.2061 16.6197C72.4979 16.4646 72.7738 16.2813 73.0297 16.0723C73.53 15.6 74.1762 15.3121 74.8619 15.2559C75.5476 15.1997 76.232 15.3786 76.8025 15.763C77.1269 15.9148 77.4134 16.1372 77.6409 16.4138C77.8684 16.6905 78.0313 17.0144 78.1177 17.362C78.2041 17.7097 78.2117 18.0722 78.1401 18.4231C78.0685 18.7741 77.9194 19.1047 77.7038 19.3907C77.5913 19.5711 77.5156 19.772 77.481 19.9818C77.4465 20.1917 77.4538 20.4062 77.5025 20.6132C77.7578 21.1809 77.808 21.8195 77.6446 22.42C77.4812 23.0206 77.1143 23.5458 76.6067 23.9058C74.9967 25.1673 73.3254 26.3509 71.6774 27.5626C71.0605 28.0154 70.4352 28.4592 69.8137 28.907L69.9769 29.1355C71.7202 28.0825 73.4563 27.0152 75.2118 25.9821C76.2098 25.3951 77.2404 24.8637 78.2569 24.3083L78.6128 24.132C79.2195 23.7734 79.9354 23.6462 80.6285 23.774C81.3216 23.9018 81.9451 24.2759 82.384 24.8272C82.7389 25.4443 82.8347 26.1769 82.6503 26.8644C82.4659 27.5519 82.0165 28.1383 81.4005 28.495C78.8514 30.5 76.1142 32.2698 73.6021 34.3173C67.1865 39.5472 60.8514 44.8738 54.4867 50.1655C54.289 50.321 54.1547 50.5432 54.1089 50.7906C54.8211 50.3061 55.5402 49.832 56.2443 49.3357C61.7526 45.2502 67.5244 41.5326 73.5222 38.2069C75.3719 37.2535 77.2955 36.4509 79.2744 35.8071C79.9091 35.5304 80.6229 35.4945 81.2822 35.7061C81.9415 35.9177 82.5011 36.3623 82.8563 36.9567C83.1949 37.5564 83.3229 38.2522 83.2199 38.9331C83.1169 39.614 82.7888 40.2408 82.288 40.7134C81.4648 41.6039 80.4279 42.2939 79.5159 43.1067C79.2442 43.3496 78.8501 43.7386 78.8895 44.0051C78.9495 44.7896 78.7791 45.5746 78.3991 46.2637C78.0192 46.9527 77.4464 47.5158 76.7509 47.8838C72.581 51.0969 68.3602 54.2443 64.1629 57.4223C63.7769 57.7146 63.4215 58.0474 63.0518 58.3614L63.1751 58.5729C64.1613 58.1624 65.177 57.8102 66.1288 57.3313C69.617 55.576 73.0671 53.7449 76.5682 52.0159C77.7833 51.4195 79.0531 50.9418 80.36 50.5895C80.9023 50.4046 81.4935 50.4241 82.0224 50.6444C82.5514 50.8646 82.9817 51.2705 83.2325 51.7856C83.4778 52.3203 83.5181 52.9264 83.3459 53.4889C83.1736 54.0513 82.8008 54.5309 82.2982 54.8366C81.386 55.5264 80.4 56.1187 79.4466 56.7542L79.5999 57.035C81.0109 56.3447 82.4195 55.6489 83.8336 54.9661C84.5486 54.6211 85.26 54.2579 85.9989 53.9754C86.5454 53.6632 87.1915 53.5746 87.8018 53.7283C88.4121 53.8819 88.9393 54.2659 89.2728 54.7996C89.6062 55.3333 89.7202 55.9755 89.5907 56.5913C89.4612 57.2072 89.0983 57.7491 88.5781 58.1034C86.9673 59.4237 85.2649 60.6361 83.5658 61.8444C81.1639 63.5524 78.728 65.2121 76.311 66.8984C75.9816 67.1075 75.7242 67.4125 75.5734 67.7723C77.0382 67.2421 78.5179 66.7496 79.9637 66.1716C81.5938 65.5203 83.1841 64.7725 84.8087 64.1091C85.3311 63.9037 85.878 63.7675 86.4357 63.7041C86.8476 63.6221 87.275 63.6734 87.6559 63.8504C88.0368 64.0275 88.3514 64.3212 88.5543 64.6889C88.7558 65.0557 88.8403 65.4753 88.7966 65.8915C88.7528 66.3076 88.5828 66.7004 88.3094 67.0172L87.783 67.7433C88.1529 67.8776 88.4565 67.9729 88.7481 68.0967C89.0796 68.2172 89.3607 68.4458 89.5463 68.7456C89.7319 69.0455 89.8111 69.3991 89.771 69.7495C89.7967 70.1228 89.6791 70.4919 89.4422 70.7817C89.2053 71.0714 88.8669 71.26 88.4959 71.3091C86.4804 71.6975 84.5608 72.4782 82.8463 73.6067C77.5895 76.194 72.3673 78.8522 67.1154 81.4504C66.1243 81.9102 65.1086 82.315 64.0728 82.663C63.475 82.9335 62.8013 82.9859 62.1689 82.8111C61.5364 82.6362 60.9853 82.2452 60.6114 81.706C60.2038 81.1852 59.8688 81.2346 59.3435 81.4327C56.7123 82.4264 54.0831 83.4307 51.4165 84.3221C50.6493 84.5154 49.851 84.5525 49.0692 84.4312C48.5669 84.4006 48.0862 84.216 47.6925 83.9026C47.2988 83.5892 47.0112 83.1621 46.8688 82.6795C46.6979 82.2071 46.6699 81.6949 46.7882 81.2067C46.9065 80.7185 47.166 80.2759 47.5342 79.9342C48.0623 79.4672 48.5387 78.9447 48.9548 78.3756C48.3397 78.6497 47.7086 78.8862 47.0648 79.084C46.0978 79.3908 45.0956 79.5726 44.0824 79.6249C43.6053 79.6427 43.1327 79.5266 42.7181 79.2898C42.3036 79.053 41.9635 78.7049 41.7365 78.2849C41.5094 77.8649 41.4044 77.3897 41.4334 76.9131C41.4624 76.4365 41.6241 75.9776 41.9004 75.5881L42.1601 75.0701C41.7598 75.0701 41.4582 75.0455 41.1623 75.0744C40.5284 75.2254 39.8637 75.1819 39.2549 74.9498C38.646 74.7176 38.1211 74.3075 37.7486 73.7729C37.6213 73.6802 37.4727 73.6212 37.3165 73.6014C37.1603 73.5816 37.0016 73.6016 36.8552 73.6597C35.1314 74.7061 33.4868 75.8888 31.73 76.8725C30.2745 77.7016 28.746 78.3953 27.1637 78.9448C26.5548 79.1425 25.897 79.1283 25.2973 78.9045C24.6976 78.6808 24.1912 78.2606 23.8607 77.7125C23.557 77.3458 23.1448 77.0851 22.6834 76.9678C22.2033 76.8942 21.751 76.6959 21.3715 76.3928C20.9921 76.0897 20.6987 75.6923 20.5208 75.2404C20.3428 74.7885 20.2865 74.2979 20.3574 73.8174C20.4283 73.337 20.624 72.8835 20.9249 72.5023C22.2142 70.9947 23.5923 69.5654 25.052 68.2222C27.6964 65.5745 30.3484 62.9344 33.0082 60.3019C33.2503 60.0816 33.4121 59.7868 33.468 59.4642C33.0565 59.676 32.6332 59.8642 32.2002 60.0278C31.3455 60.3673 30.4563 60.6124 29.5483 60.7586C29.1264 60.8267 28.6942 60.7893 28.2903 60.6497C27.8864 60.5102 27.5233 60.2727 27.2335 59.9587C26.9436 59.6446 26.7361 59.2637 26.6293 58.8499C26.5226 58.436 26.5199 58.0022 26.6216 57.5871C26.7235 56.9471 26.5035 56.7132 25.9852 56.4653C25.6172 56.3312 25.2807 56.1226 24.9968 55.8526C24.713 55.5827 24.4878 55.257 24.3355 54.8961C24.1831 54.5352 24.1068 54.1468 24.1112 53.7551C24.1157 53.3634 24.2009 52.9768 24.3615 52.6194C24.7968 51.393 25.6198 50.3418 26.7059 49.6248C27.681 48.9035 28.6292 48.1457 29.5712 47.4179C29.2557 47.051 29.0213 46.6215 28.8835 46.1577C28.7458 45.6938 28.7077 45.206 28.7719 44.7264C28.836 44.2468 29.0009 43.7862 29.2557 43.3748C29.5106 42.9635 29.8496 42.6107 30.2504 42.3397C32.3738 40.168 34.2788 37.7677 36.5136 35.7235C39.587 32.9121 42.8506 30.3041 46.0875 27.6767C51.0125 23.591 56.3804 20.0706 62.0902 17.1814C62.6791 16.8795 63.2848 16.6117 63.9044 16.3793C64.2293 16.24 64.5932 16.2207 64.9311 16.3249C65.269 16.429 65.5588 16.6499 65.7489 16.948C65.9409 17.2244 66.0292 17.5597 65.9985 17.8948C65.9677 18.2299 65.8198 18.5435 65.5807 18.7803C65.2995 19.1051 64.9744 19.3892 64.6148 19.6243C61.7794 21.7487 58.9413 23.8693 56.1008 25.9862C55.8542 26.1709 55.6369 26.3937 55.4059 26.6004L55.564 26.8035Z" fill="#1E293B"/>
</svg>
