<svg width="110" height="101" viewBox="0 0 110 101" fill="none" xmlns="http://www.w3.org/2000/svg">
<path d="M101.639 0.654907H8.13108C3.64041 0.654907 0 4.29532 0 8.78599V92.1296C0 96.6203 3.64041 100.261 8.13108 100.261H101.639C106.129 100.261 109.77 96.6203 109.77 92.1296V8.78599C109.77 4.29532 106.129 0.654907 101.639 0.654907Z" fill="#1E293B"/>
<path d="M55.564 27.4584C57.1604 26.4206 58.7303 25.3393 60.3581 24.3535C64.2934 21.9707 68.2561 19.6333 72.2061 17.2746C72.498 17.1196 72.7738 16.9362 73.0298 16.7272C73.5301 16.2549 74.1762 15.967 74.8619 15.9108C75.5476 15.8546 76.232 16.0335 76.8026 16.4179C77.127 16.5698 77.4134 16.7921 77.6409 17.0687C77.8685 17.3454 78.0314 17.6693 78.1177 18.0169C78.2041 18.3646 78.2118 18.7271 78.1402 19.0781C78.0686 19.429 77.9195 19.7596 77.7039 20.0456C77.5913 20.226 77.5156 20.4269 77.4811 20.6367C77.4465 20.8466 77.4538 21.0612 77.5026 21.2681C77.7578 21.8358 77.8081 22.4744 77.6447 23.075C77.4813 23.6755 77.1144 24.2007 76.6067 24.5607C74.9968 25.8222 73.3255 27.0058 71.6775 28.2175C71.0606 28.6703 70.4352 29.1141 69.8138 29.5619L69.977 29.7904C71.7203 28.7374 73.4563 27.6701 75.2119 26.637C76.2098 26.05 77.2404 25.5186 78.257 24.9632L78.6129 24.7869C79.2196 24.4283 79.9355 24.3011 80.6286 24.4289C81.3216 24.5567 81.9451 24.9308 82.384 25.4822C82.7389 26.0992 82.8347 26.8318 82.6504 27.5193C82.466 28.2068 82.0166 28.7932 81.4006 29.1499C78.8515 31.1549 76.1143 32.9247 73.6021 34.9722C67.1866 40.2021 60.8514 45.5287 54.4868 50.8204C54.2891 50.9759 54.1547 51.1981 54.1089 51.4455C54.8212 50.961 55.5403 50.4869 56.2444 49.9906C61.7527 45.9051 67.5245 42.1875 73.5222 38.8618C75.3719 37.9084 77.2956 37.1058 79.2744 36.462C79.9092 36.1853 80.623 36.1494 81.2823 36.361C81.9416 36.5726 82.5012 37.0172 82.8563 37.6116C83.1949 38.2113 83.323 38.9071 83.22 39.588C83.117 40.2689 82.7889 40.8957 82.288 41.3683C81.4648 42.2588 80.4279 42.9488 79.516 43.7616C79.2443 44.0046 78.8501 44.3935 78.8895 44.66C78.9495 45.4445 78.7791 46.2295 78.3992 46.9186C78.0193 47.6076 77.4464 48.1707 76.7509 48.5387C72.5811 51.7518 68.3603 54.8992 64.163 58.0772C63.777 58.3695 63.4215 58.7023 63.0518 59.0164L63.1752 59.2278C64.1614 58.8173 65.177 58.4651 66.1288 57.9862C69.617 56.2309 73.0672 54.3998 76.5682 52.6708C77.7833 52.0744 79.0531 51.5967 80.36 51.2444C80.9023 51.0595 81.4935 51.079 82.0225 51.2993C82.5514 51.5195 82.9818 51.9254 83.2326 52.4405C83.4778 52.9752 83.5182 53.5813 83.3459 54.1438C83.1737 54.7062 82.8008 55.1858 82.2982 55.4915C81.3861 56.1813 80.4001 56.7736 79.4467 57.4091L79.6 57.6899C81.0109 56.9996 82.4196 56.3038 83.8337 55.621C84.5487 55.276 85.26 54.9128 85.999 54.6303C86.5455 54.3181 87.1916 54.2295 87.8019 54.3832C88.4122 54.5368 88.9393 54.9208 89.2728 55.4545C89.6063 55.9883 89.7202 56.6304 89.5907 57.2463C89.4612 57.8621 89.0984 58.404 88.5782 58.7583C86.9673 60.0786 85.265 61.291 83.5659 62.4993C81.164 64.2073 78.7281 65.8671 76.311 67.5533C75.9817 67.7625 75.7243 68.0674 75.5734 68.4272C77.0382 67.897 78.518 67.4045 79.9638 66.8265C81.5939 66.1752 83.1841 65.4274 84.8088 64.764C85.3311 64.5586 85.8781 64.4224 86.4357 64.359C86.8477 64.277 87.275 64.3283 87.6559 64.5053C88.0368 64.6824 88.3515 64.9761 88.5544 65.3438C88.7559 65.7106 88.8404 66.1302 88.7966 66.5464C88.7528 66.9625 88.5828 67.3554 88.3094 67.6722L87.783 68.3982C88.153 68.5325 88.4566 68.6278 88.7482 68.7516C89.0796 68.8721 89.3608 69.1007 89.5464 69.4005C89.732 69.7004 89.8111 70.054 89.7711 70.4044C89.7967 70.7777 89.6791 71.1469 89.4422 71.4366C89.2054 71.7263 88.867 71.915 88.496 71.9641C86.4805 72.3524 84.5609 73.1331 82.8464 74.2616C77.5895 76.8489 72.3673 79.5071 67.1155 82.1053C66.1244 82.5651 65.1086 82.9699 64.0729 83.3179C63.4751 83.5884 62.8014 83.6409 62.1689 83.466C61.5365 83.2911 60.9853 82.9001 60.6114 82.3609C60.2039 81.8402 59.8688 81.8895 59.3436 82.0876C56.7123 83.0813 54.0831 84.0856 51.4166 84.977C50.6493 85.1703 49.8511 85.2074 49.0692 85.0861C48.567 85.0555 48.0863 84.8709 47.6926 84.5575C47.2989 84.2441 47.0113 83.817 46.8688 83.3344C46.698 82.862 46.6699 82.3498 46.7883 81.8616C46.9066 81.3734 47.166 80.9308 47.5342 80.5891C48.0624 80.1221 48.5387 79.5996 48.9549 79.0305C48.3398 79.3046 47.7086 79.5411 47.0649 79.7389C46.0979 80.0457 45.0956 80.2275 44.0825 80.2798C43.6054 80.2976 43.1328 80.1815 42.7182 79.9447C42.3036 79.7079 41.9636 79.3598 41.7365 78.9398C41.5095 78.5198 41.4045 78.0446 41.4335 77.568C41.4624 77.0914 41.6242 76.6325 41.9004 76.2431L42.1601 75.725C41.7598 75.725 41.4583 75.7004 41.1624 75.7293C40.5285 75.8803 39.8638 75.8368 39.2549 75.6047C38.646 75.3725 38.1212 74.9624 37.7487 74.4278C37.6214 74.3351 37.4727 74.2761 37.3165 74.2563C37.1603 74.2365 37.0017 74.2566 36.8553 74.3146C35.1315 75.361 33.4869 76.5437 31.73 77.5274C30.2746 78.3565 28.7461 79.0502 27.1637 79.5997C26.5549 79.7974 25.8971 79.7832 25.2974 79.5594C24.6976 79.3357 24.1913 78.9155 23.8607 78.3674C23.5571 78.0007 23.1448 77.74 22.6834 77.6227C22.2034 77.5491 21.7511 77.3508 21.3716 77.0477C20.9921 76.7446 20.6988 76.3472 20.5208 75.8954C20.3429 75.4435 20.2865 74.9528 20.3575 74.4723C20.4284 73.9919 20.6241 73.5384 20.925 73.1572C22.2142 71.6496 23.5924 70.2203 25.0521 68.8771C27.6964 66.2294 30.3485 63.5893 33.0083 60.9568C33.2504 60.7365 33.4122 60.4417 33.4681 60.1192C33.0565 60.3309 32.6332 60.5191 32.2003 60.6827C31.3456 61.0223 30.4564 61.2673 29.5484 61.4135C29.1265 61.4816 28.6943 61.4442 28.2904 61.3047C27.8864 61.1651 27.5234 60.9277 27.2335 60.6136C26.9437 60.2995 26.7361 59.9186 26.6294 59.5048C26.5226 59.0909 26.52 58.6571 26.6217 58.2421C26.7236 57.602 26.5035 57.3681 25.9853 57.1202C25.6172 56.9861 25.2808 56.7775 24.9969 56.5076C24.713 56.2376 24.4879 55.9119 24.3355 55.551C24.1832 55.1901 24.1068 54.8017 24.1113 54.41C24.1158 54.0183 24.201 53.6317 24.3615 53.2743C24.7969 52.0479 25.6198 50.9967 26.7059 50.2797C27.681 49.5584 28.6292 48.8006 29.5713 48.0728C29.2557 47.7059 29.0214 47.2764 28.8836 46.8126C28.7458 46.3487 28.7078 45.861 28.7719 45.3813C28.8361 44.9017 29.001 44.4411 29.2558 44.0297C29.5106 43.6184 29.8496 43.2656 30.2505 42.9946C32.3739 40.8229 34.2788 38.4226 36.5137 36.3784C39.5871 33.567 42.8506 30.959 46.0875 28.3317C51.0126 24.2459 56.3804 20.7255 62.0903 17.8363C62.6791 17.5344 63.2849 17.2666 63.9044 17.0342C64.2294 16.8949 64.5933 16.8756 64.9312 16.9798C65.269 17.0839 65.5589 17.3048 65.7489 17.6029C65.9409 17.8793 66.0293 18.2146 65.9985 18.5497C65.9678 18.8848 65.8198 19.1984 65.5807 19.4352C65.2996 19.76 64.9745 20.0441 64.6149 20.2792C61.7794 22.4036 58.9414 24.5243 56.1008 26.6411C55.8543 26.8259 55.6369 27.0486 55.406 27.2553L55.564 27.4584Z" fill="#F8FAFC"/>
</svg>
